<svg xmlns="http://www.w3.org/2000/svg" width="48" height="48" viewBox="0 0 48 48" fill="none">
  <defs>
    <linearGradient id="gold" x1="0" y1="0" x2="48" y2="48" gradientUnits="userSpaceOnUse">
      <stop stop-color="#f0c878"/>
      <stop offset="0.5" stop-color="#e8b864"/>
      <stop offset="1" stop-color="#b8924a"/>
    </linearGradient>
  </defs>
  <!-- 圆角方块底 -->
  <rect width="48" height="48" rx="12" fill="url(#gold)"/>
  <!-- S 字母 — 粗体手写感 -->
  <path d="M31 17.5C31 14.5 28.5 12.5 24 12.5C19.5 12.5 17 15 17 18C17 21 19.5 22.5 24 23.5C28.5 24.5 31 26 31 29C31 32 28.5 34.5 24 34.5C19.5 34.5 17 32.5 17 29.5" stroke="#161310" stroke-width="3.5" stroke-linecap="round" stroke-linejoin="round" fill="none"/>
  <!-- 速度线 — go go go 动感 -->
  <rect x="36" y="16" width="8" height="2.5" rx="1.25" fill="#161310" opacity="0.8"/>
  <rect x="37" y="22.5" width="7" height="2.5" rx="1.25" fill="#161310" opacity="0.5"/>
  <rect x="36" y="29" width="8" height="2.5" rx="1.25" fill="#161310" opacity="0.8"/>
</svg>
